<svg xmlns="http://www.w3.org/2000/svg" viewBox="0 0 200 200">
  <defs>
    <radialGradient id="g" cx="50%" cy="50%" r="60%">
      <stop offset="0%" stop-color="#1e90ff" stop-opacity="0.9"/>
      <stop offset="100%" stop-color="#0a1a2a" stop-opacity="0.8"/>
    </radialGradient>
  </defs>
  <circle cx="100" cy="100" r="90" fill="url(#g)" stroke="#00bfff" stroke-width="3"/>
  <circle cx="100" cy="100" r="60" fill="none" stroke="#00ffff" stroke-width="2" stroke-dasharray="4 6"/>
  <g fill="#ffd700" font-family="Segoe UI, Arial, sans-serif" font-size="10" text-anchor="middle">
    <!-- Outer alphabet -->
    <script type="application/ecmascript"><![CDATA[
      // placeholder; static positions below
    ]]></script>
  </g>
  <!-- Static letters around the ring -->
  <g fill="#ffd700" font-family="Segoe UI, Arial, sans-serif" font-size="10" text-anchor="middle">
    <!-- place 26 letters -->
    <!-- Generated approximate positions -->
    <!-- We'll place letters A..Z around the circle -->
    
    <!-- Using simple placement -->
    
    <!-- Positions computed for r=78 -->
    
    <!-- A at -90deg -->
    <text x="100" y="22">A</text>
    <text x="118" y="23">B</text>
    <text x="136" y="28">C</text>
    <text x="152" y="37">D</text>
    <text x="166" y="49">E</text>
    <text x="177" y="63">F</text>
    <text x="185" y="79">G</text>
    <text x="188" y="98">H</text>
    <text x="186" y="116">I</text>
    <text x="180" y="133">J</text>
    <text x="170" y="148">K</text>
    <text x="156" y="160">L</text>
    <text x="140" y="169">M</text>
    <text x="122" y="174">N</text>
    <text x="103" y="176">O</text>
    <text x="84" y="174">P</text>
    <text x="66" y="168">Q</text>
    <text x="49" y="159">R</text>
    <text x="35" y="147">S</text>
    <text x="24" y="133">T</text>
    <text x="17" y="116">U</text>
    <text x="14" y="98">V</text>
    <text x="16" y="79">W</text>
    <text x="23" y="62">X</text>
    <text x="33" y="47">Y</text>
    <text x="47" y="35">Z</text>
  </g>
  <text x="100" y="106" fill="#00ffff" font-size="20" font-weight="bold" text-anchor="middle">CAESAR</text>
  <text x="100" y="126" fill="#00bfff" font-size="10" text-anchor="middle">Cipher Wheel</text>
</svg>

